PathFileType	4	(X/Y/Z)	s08c0301.trc
DataRate	CameraRate	NumFrames	NumMarkers	Units	OrigDataRate	OrigDataStartFrame	OrigNumFrames
200	200	5	50	mm	200	500	2000
Frame#	Time	racr			lacr			c7			jug			rlel			rdr			llel			ldr			s2			lic			ric			lasi			rasi			rpsi			lpsi			rgt			lgt			rth1			rth2			rth3			rth4			rlfc			rmfc			rsh1			rsh2			rsh3			rsh4			rlmal			rmmal			rcal			rtoe			rmt5			lth1			lth2			lth4			lth3			llfc			lmfc			llmal			lmmal			lcal			lmt5			lsh1			lsh2			lsh3			lsh4			ltoe			SBIKE			LBIKE			RBIKE			
		X1	Y1	Z1	X2	Y2	Z2	X3	Y3	Z3	X4	Y4	Z4	X5	Y5	Z5	X6	Y6	Z6	X7	Y7	Z7	X8	Y8	Z8	X9	Y9	Z9	X10	Y10	Z10	X11	Y11	Z11	X12	Y12	Z12	X13	Y13	Z13	X14	Y14	Z14	X15	Y15	Z15	X16	Y16	Z16	X17	Y17	Z17	X18	Y18	Z18	X19	Y19	Z19	X20	Y20	Z20	X21	Y21	Z21	X22	Y22	Z22	X23	Y23	Z23	X24	Y24	Z24	X25	Y25	Z25	X26	Y26	Z26	X27	Y27	Z27	X28	Y28	Z28	X29	Y29	Z29	X30	Y30	Z30	X31	Y31	Z31	X32	Y32	Z32	X33	Y33	Z33	X34	Y34	Z34	X35	Y35	Z35	X36	Y36	Z36	X37	Y37	Z37	X38	Y38	Z38	X39	Y39	Z39	X40	Y40	Z40	X41	Y41	Z41	X42	Y42	Z42	X43	Y43	Z43	X44	Y44	Z44	X45	Y45	Z45	X46	Y46	Z46	X47	Y47	Z47	X48	Y48	Z48	X49	Y49	Z49	X50	Y50	Z50	
500	2.5000	907.702020	1391.881117	-201.253910	852.541958	1343.138357	-490.959502	855.818341	1415.826724	-335.046887	842.125918	1255.534634	-310.875386	812.836982	1176.459191	-8.071941	811.752281	890.169190	-58.087978	658.661170	1114.719457	-535.978145	808.329310	910.815381	-438.471966	309.998960	1260.116439	-148.201078	406.606317	1239.898135	-339.728637	517.163699	1239.107598	-45.255534	446.597094	1193.920843	-311.816191	514.003758	1167.507276	-90.644999	363.016946	1291.537814	-108.965989	331.520365	1303.112376	-199.252045	426.469346	1122.458463	9.265168	342.025834	1148.339430	-358.454573	485.329339	958.789680	-15.642761	523.063934	880.327467	-35.307774	518.324187	794.590755	-41.844905	552.974034	889.604086	-52.507076	521.017985	675.735513	-60.133937	484.758763	683.771814	-167.233054	405.002066	608.064610	-23.547842	353.055054	538.435260	-44.730187	274.468097	502.189330	-46.960024	371.704331	521.737246	-78.258414	170.933794	434.917918	-52.297231	197.462872	432.907006	-141.061792	120.639128	491.961736	-102.908629	201.345162	205.186867	-107.367305	145.881212	279.038246	-39.297967	414.183257	1036.348300	-386.192468	482.306671	983.717827	-401.227900	512.272872	1005.214631	-396.786028	514.896705	901.791657	-412.185909	572.442617	780.190731	-407.311514	589.552515	747.606817	-302.345779	356.952187	419.416338	-393.454311	394.529088	429.319629	-311.084123	284.837457	406.923022	-352.587111	473.482921	313.417840	-427.218027	506.843333	669.869932	-427.268084	482.665447	588.585172	-410.659228	420.162448	526.811754	-405.215133	508.669476	577.628157	-382.585034	562.783789	329.688307	-364.306721	-138.571199	941.486502	-228.378118	16.696654	80.055592	-427.287570	16.843184	80.164714	-28.881105	
501	2.5050	905.630924	1392.581288	-195.683351	854.354894	1340.111624	-489.604801	855.948200	1414.599205	-334.201257	840.093308	1255.011326	-306.917750	812.013123	1176.403338	-7.828914	811.953710	889.961200	-57.010805	658.724880	1113.507428	-536.785506	807.793621	910.597536	-438.467003	309.674785	1256.712387	-147.832660	406.993386	1235.776300	-340.490019	517.003712	1237.671262	-45.938316	446.350199	1190.127316	-312.108147	512.244828	1168.759417	-85.232066	362.254060	1289.309299	-109.013443	331.052057	1299.382547	-200.187953	428.692658	1121.241170	10.155665	341.388794	1143.399961	-358.040180	487.506713	958.054528	-15.439091	526.328542	880.283685	-34.792827	522.963310	794.082062	-42.150446	556.299488	889.915326	-52.938631	527.623498	676.467593	-61.325721	490.230503	684.174683	-168.049316	410.074979	612.165942	-24.948691	356.645472	543.539312	-45.652355	277.032365	509.230828	-47.730015	375.392838	525.633390	-79.283806	172.307092	444.931100	-52.745925	198.389557	442.821876	-141.669376	122.190101	502.562210	-103.076978	200.960512	215.257421	-107.878458	146.072857	289.515405	-39.581448	413.097694	1030.524551	-385.540784	480.473168	976.722818	-400.195470	510.765883	997.753015	-395.645945	511.815915	894.193154	-410.592882	567.719237	772.570398	-405.597597	584.390478	739.683609	-301.079344	356.895512	408.545859	-394.303506	394.287301	419.628479	-312.018783	284.577962	396.168447	-353.620592	473.568543	302.047665	-427.125677	503.956054	660.754973	-426.629291	480.835846	579.109245	-409.926048	419.487244	516.490835	-405.505846	506.540909	568.721224	-381.142447	562.838855	318.814097	-364.449629	-138.590644	941.485207	-228.468549	16.670151	80.017466	-427.307742	16.831905	80.103044	-28.853769	
502	2.5100	903.527694	1393.283810	-189.777053	856.386105	1337.200510	-488.058218	856.305210	1413.573758	-332.875956	837.816593	1254.767989	-302.846979	810.746607	1176.476087	-7.116378	813.038481	889.868878	-55.119160	659.321555	1112.225599	-538.160749	807.172835	910.275575	-438.597786	308.915499	1253.547983	-148.222430	408.345143	1231.279771	-342.207821	516.539737	1236.207167	-46.649720	446.230887	1186.210079	-312.464744	512.076126	1167.440882	-85.855126	361.459521	1287.106661	-109.762161	330.302418	1295.776808	-201.022232	429.119090	1119.181216	10.142016	340.922832	1138.036468	-357.751870	489.098913	956.768568	-14.644026	528.880166	879.974089	-34.385366	526.976686	793.910114	-41.123736	558.540487	890.045155	-52.320122	533.866243	677.126616	-62.945127	495.939074	684.472688	-168.985019	415.198265	616.552639	-26.394516	360.512648	548.902589	-46.425158	279.872853	516.422694	-48.609144	378.869932	529.870542	-80.172028	173.976361	455.090031	-53.114684	199.720336	452.904533	-142.163969	124.045910	513.162652	-103.236540	201.254280	225.414465	-108.254167	146.953808	299.853197	-39.908955	412.218258	1024.339230	-384.877129	478.623309	969.391126	-399.223720	508.847023	989.520415	-394.724606	508.651364	886.257737	-408.922634	563.017246	764.732742	-403.727062	579.016652	731.666178	-299.407409	356.254863	397.838303	-395.091289	394.458733	409.210653	-311.104750	283.823321	386.340465	-355.282136	472.863452	290.665685	-427.056511	500.905017	651.431671	-425.191378	478.973985	569.691736	-408.770229	418.610124	505.966031	-405.178419	503.952340	560.024601	-379.083609	562.357501	307.009423	-364.068088	-138.567262	941.383423	-228.804979	16.651690	79.956891	-427.360985	16.848515	80.293781	-28.780791	
503	2.5150	901.634868	1393.953979	-184.227546	858.602148	1334.818497	-487.136765	856.713596	1412.666194	-331.399676	836.498661	1254.478239	-299.313470	809.385989	1176.594776	-5.912693	810.950793	889.483635	-57.078669	660.773209	1110.870369	-539.753611	806.728903	909.805602	-438.811918	308.146714	1250.542422	-148.882508	408.363744	1227.601413	-342.613082	515.819446	1234.744966	-47.247943	446.247743	1182.186723	-312.884524	511.686983	1166.094892	-86.346492	360.822033	1283.865482	-110.198664	329.661863	1292.240535	-201.843889	428.563574	1117.438879	9.568969	340.731685	1132.568675	-357.611146	490.384486	955.563939	-13.103031	531.476053	879.618438	-33.684261	530.672134	793.272893	-41.535136	561.256156	890.663254	-51.423290	540.390856	678.272781	-63.837738	502.275910	684.910458	-169.950988	420.480850	621.032130	-27.755193	364.301818	554.446073	-47.390975	283.026501	523.865126	-49.792645	382.094344	534.969637	-81.725270	175.998349	465.413609	-53.533592	201.834735	462.633767	-142.795090	126.295446	523.779486	-103.615509	202.434179	235.838899	-108.544272	148.372223	310.544713	-40.213208	411.319691	1017.945555	-384.538246	476.761931	961.716060	-398.363973	507.405655	981.365795	-393.763858	505.328110	878.009397	-407.311297	558.100610	756.746294	-401.712720	568.803994	722.664110	-300.630581	355.218431	387.381603	-395.326396	393.235259	398.529165	-311.591939	283.309738	375.670806	-354.668331	471.616683	279.538174	-426.813678	497.791310	642.078463	-423.385072	476.748931	560.207166	-407.357348	417.239267	495.659929	-404.641852	501.044692	551.279921	-376.878511	561.178585	295.380013	-363.873507	-138.628912	941.356585	-228.886514	16.632162	79.901552	-427.434100	16.823652	80.238187	-28.871200	
504	2.5200	900.195168	1394.556850	-179.727376	860.914602	1332.468805	-485.302968	857.250320	1411.988372	-329.459453	835.720402	1254.282896	-295.906157	807.727164	1176.609970	-4.433727	811.191091	889.380715	-56.022556	662.760166	1109.609211	-541.635856	806.441538	909.175031	-439.140291	307.271323	1247.513415	-149.923766	409.510264	1223.406339	-343.897024	514.737804	1233.343009	-47.863832	446.409288	1178.075209	-313.366091	510.894721	1164.565878	-86.711084	359.546814	1282.143690	-111.492993	329.071907	1288.776049	-203.199311	428.816568	1116.183818	10.157647	340.846851	1126.985945	-357.738631	491.166858	954.423637	-11.645735	533.866821	879.525392	-32.635339	534.804229	793.142796	-41.027188	563.113175	890.886240	-50.904075	546.843936	679.707059	-65.072286	508.935747	685.981782	-171.028872	425.886588	625.660268	-29.065760	368.312804	560.146865	-48.331004	286.443245	531.357326	-50.652881	385.906406	539.962521	-82.477359	178.547408	475.563004	-54.290019	204.139596	472.732216	-143.457605	128.821216	534.245584	-103.992486	204.461426	246.229502	-108.766248	150.572167	321.123392	-40.459299	410.354873	1011.309634	-384.300256	474.802075	953.770130	-397.521013	505.896630	972.880397	-392.805926	501.722621	869.338233	-405.542885	553.311829	748.486778	-399.163349	566.007532	715.070665	-296.032083	353.642506	376.988223	-394.857838	386.413373	385.478487	-318.138126	281.908727	365.830644	-354.592376	469.764858	268.684372	-426.523779	494.490606	633.059061	-421.512820	474.912454	552.716581	-408.526296	415.117254	485.799850	-403.721090	498.697149	544.047646	-377.309770	559.348431	283.807421	-363.427002	-138.644653	941.314073	-229.085585	16.640322	79.823566	-427.491878	16.801657	80.032467	-29.054741	
